<svg xmlns="http://www.w3.org/2000/svg" viewBox="0 0 25.92 28.62"><g data-name="Layer 2"><g data-name="Layer 1"><path d="M0 0H6.38C9.65 0 10.9 1.7 10.9 3.77A3.66 3.66 0 0 1 9.34 6.6a3.88 3.88 0 0 1 2.33 3.58c0 2.33-1.42 4.22-5 4.22H0ZM5.45 5.62c1.15 0 1.75-0.56 1.75-1.56S6.6 2.47 5.45 2.47H3.89V5.62Zm0.19 6.31c1.51 0 2.26-0.65 2.26-1.92S7.15 8.09 5.64 8.09H3.89v3.84ZM14.71 8.86V14.4H10.82V0h6.56c3.5 0 5 2.11 5 4.44a4.07 4.07 0 0 1-2.81 4l4.21 5.93-1.3 4.19L15.74 8.86Zm1.68-2.48c1.49 0 2.16-0.67 2.16-1.89s-0.67-1.92-2.16-1.92H14.71V6.38Z"/><polygon points="22.03 2.59 25.92 0 25.92 14.4 22.03 14.4 22.03 2.59"/><path d="M0 14.4H5.48L15 28.62H10.82l-2-3.07H3.77v3.07H0ZM7.49 23 4 17.39H3.71V23Z"/><polygon points="10.82 14.4 14.71 14.4 22.03 23.35 22.03 14.22 25.92 14.22 25.92 28.62 22.03 28.62 14.97 19.49 14.98 28.62 10.82 28.62 10.82 14.4"/></g></g></svg>